G04 PROTEUS GERBER X2 FILE*
%TF.GenerationSoftware,Labcenter,Proteus,8.7-SP3-Build25561*%
%TF.CreationDate,2020-08-12T13:03:35+00:00*%
%TF.FileFunction,Copper,L1,Top*%
%TF.FilePolarity,Positive*%
%TF.Part,Single*%
%TF.SameCoordinates,{83fe10cb-d733-4169-9c25-5540115bc659}*%
%FSLAX45Y45*%
%MOMM*%
G01*
%TA.AperFunction,Conductor*%
%ADD10C,1.016000*%
%TA.AperFunction,ViaPad*%
%ADD11C,0.762000*%
%TA.AperFunction,ComponentPad*%
%ADD12R,2.032000X2.032000*%
%TA.AperFunction,ComponentPad*%
%ADD13C,3.048000*%
%AMDIL004*
4,1,8,
-1.270000,0.457200,-0.965200,0.762000,0.965200,0.762000,1.270000,0.457200,1.270000,-0.457200,
0.965200,-0.762000,-0.965200,-0.762000,-1.270000,-0.457200,-1.270000,0.457200,
0*%
%TA.AperFunction,ComponentPad*%
%ADD14DIL004*%
%AMDIL005*
4,1,8,
-0.762000,0.965200,-0.457200,1.270000,0.457200,1.270000,0.762000,0.965200,0.762000,-0.965200,
0.457200,-1.270000,-0.457200,-1.270000,-0.762000,-0.965200,-0.762000,0.965200,
0*%
%ADD15DIL005*%
%TA.AperFunction,ComponentPad*%
%ADD16C,1.778000*%
%TA.AperFunction,ComponentPad*%
%ADD17R,3.810000X3.810000*%
%TA.AperFunction,Profile*%
%ADD18C,0.203200*%
%TD.AperFunction*%
D10*
X-603667Y+6672007D02*
X-123127Y+6191467D01*
X-123127Y+4691004D01*
X+122046Y+4445831D01*
X+1200811Y+4445831D01*
X+1538031Y+4445831D01*
X+2250000Y+5157800D01*
X-283419Y+6796373D02*
X-99170Y+6612124D01*
X+2750103Y+6612124D01*
X+2750103Y+5677720D01*
X+3164663Y+5263160D01*
X+3690740Y+5263160D01*
X+3750000Y+5203900D01*
X-3256137Y+6645681D02*
X-2393946Y+6645681D01*
X-1904951Y+7134676D01*
X+3254423Y+7134676D01*
X+3730673Y+6658426D01*
X+3743902Y+6658426D01*
X+3743902Y+6302198D01*
X+3750000Y+6296100D01*
X-3967619Y+5471587D02*
X-1656085Y+5471587D01*
X-722064Y+4537566D01*
X-722064Y+4040318D01*
X-675027Y+3993281D01*
X-164339Y+3482593D01*
X-3069Y+3482593D01*
X-3069Y+2753069D01*
X+0Y+2750000D01*
X-4155000Y+5100900D02*
X-2042567Y+5100900D01*
D11*
X-603667Y+6672007D03*
X-283419Y+6796373D03*
X-3256137Y+6645681D03*
X-3967619Y+5471587D03*
X-4155000Y+5100900D03*
X-2042567Y+5100900D03*
D12*
X-3500000Y+8250000D03*
X-3246000Y+8250000D03*
X-2992000Y+8250000D03*
X-2738000Y+8250000D03*
X-2484000Y+8250000D03*
X-2230000Y+8250000D03*
X-1976000Y+8250000D03*
X-1722000Y+8250000D03*
X-1468000Y+8250000D03*
X-1214000Y+8250000D03*
X-960000Y+8250000D03*
X-706000Y+8250000D03*
X-452000Y+8250000D03*
X-198000Y+8250000D03*
X+56000Y+8250000D03*
X+310000Y+8250000D03*
X+564000Y+8250000D03*
X+818000Y+8250000D03*
X-3500000Y+7500000D03*
X-3246000Y+7500000D03*
X-2992000Y+7500000D03*
X-2738000Y+7500000D03*
X-2484000Y+7500000D03*
X-2230000Y+7500000D03*
X-1976000Y+7500000D03*
X-1722000Y+7500000D03*
X-1468000Y+7500000D03*
X-1214000Y+7500000D03*
X-960000Y+7500000D03*
X-706000Y+7500000D03*
X-452000Y+7500000D03*
X-198000Y+7500000D03*
X+56000Y+7500000D03*
X+310000Y+7500000D03*
X+564000Y+7500000D03*
X+818000Y+7500000D03*
D13*
X-8992000Y+3000000D03*
X-9500000Y+3000000D03*
D12*
X-8996000Y+4500000D03*
X-9250000Y+4500000D03*
X-9504000Y+4500000D03*
X-8996000Y+5500000D03*
X-9250000Y+5500000D03*
X-9504000Y+5500000D03*
D14*
X-10500000Y+4976000D03*
X-10500000Y+5230000D03*
X-10500000Y+5484000D03*
X-10500000Y+5738000D03*
X-10500000Y+5992000D03*
X-10500000Y+6246000D03*
X-10500000Y+6500000D03*
X-10500000Y+6754000D03*
X-10500000Y+7008000D03*
X-10500000Y+7262000D03*
D13*
X-9750000Y+6750000D03*
X-9242000Y+6750000D03*
D15*
X-8250000Y+5500000D03*
X-7996000Y+5500000D03*
X-7742000Y+5500000D03*
X-7488000Y+5500000D03*
X-7234000Y+5500000D03*
X-6980000Y+5500000D03*
X-6726000Y+5500000D03*
X-6472000Y+5500000D03*
X-6218000Y+5500000D03*
X-5964000Y+5500000D03*
D13*
X-7000000Y+2750000D03*
X-6492000Y+2750000D03*
X-5750000Y+2750000D03*
X-5242000Y+2750000D03*
X-4500000Y+2750000D03*
X-3992000Y+2750000D03*
D15*
X-8500000Y+6750000D03*
X-8246000Y+6750000D03*
X-7992000Y+6750000D03*
X-7738000Y+6750000D03*
X-7484000Y+6750000D03*
X-7230000Y+6750000D03*
X-6976000Y+6750000D03*
X-6722000Y+6750000D03*
X-6468000Y+6750000D03*
X-6214000Y+6750000D03*
X-8500000Y+7250000D03*
X-8246000Y+7250000D03*
X-7992000Y+7250000D03*
X-7738000Y+7250000D03*
X-7484000Y+7250000D03*
X-7230000Y+7250000D03*
X-6976000Y+7250000D03*
X-6722000Y+7250000D03*
X-6468000Y+7250000D03*
X-6214000Y+7250000D03*
D13*
X-1500000Y+2750000D03*
X-992000Y+2750000D03*
X-5750000Y+8250000D03*
X-5242000Y+8250000D03*
X-4734000Y+8250000D03*
X-4226000Y+8250000D03*
X-8000000Y+8250000D03*
X-7492000Y+8250000D03*
X-6984000Y+8250000D03*
X-6476000Y+8250000D03*
X-12000000Y+6250000D03*
X-12000000Y+6758000D03*
X-12000000Y+7266000D03*
X-12000000Y+7774000D03*
X-12000000Y+4250000D03*
X-12000000Y+4758000D03*
X-12000000Y+5266000D03*
X-12000000Y+5774000D03*
X-2250000Y+10000000D03*
X-1742000Y+10000000D03*
D16*
X-7000000Y+3750000D03*
X-7000000Y+4766000D03*
X-5500000Y+3750000D03*
X-5500000Y+4766000D03*
X-4500000Y+3750000D03*
X-4500000Y+4766000D03*
D13*
X-3250000Y+2750000D03*
X-2742000Y+2750000D03*
D16*
X-2000000Y+3750000D03*
X-2000000Y+4766000D03*
D13*
X+0Y+2750000D03*
X+508000Y+2750000D03*
X+1750000Y+2750000D03*
X+2258000Y+2750000D03*
X+3500000Y+2750000D03*
X+4008000Y+2750000D03*
X+5750000Y+2750000D03*
X+6258000Y+2750000D03*
D17*
X+1000000Y+5203900D03*
X+1000000Y+5750000D03*
X+1000000Y+6296100D03*
X+2250000Y+5157800D03*
X+2250000Y+5703900D03*
X+2250000Y+6250000D03*
X+3750000Y+5203900D03*
X+3750000Y+5750000D03*
X+3750000Y+6296100D03*
X+5250000Y+5203900D03*
X+5250000Y+5750000D03*
X+5250000Y+6296100D03*
D16*
X+3250000Y+4750000D03*
X+3250000Y+3734000D03*
X+762000Y+3750000D03*
X+0Y+3750000D03*
X+2512000Y+3750000D03*
X+1750000Y+3750000D03*
X+3762000Y+3500000D03*
X+3000000Y+3500000D03*
X+6512000Y+3500000D03*
X+5750000Y+3500000D03*
X+250000Y+6250000D03*
X+250000Y+5234000D03*
X+1750000Y+6250000D03*
X+1750000Y+5234000D03*
X+5750000Y+6500000D03*
X+5750000Y+5484000D03*
D13*
X-5250000Y+5750000D03*
X-4742000Y+5750000D03*
X-4234000Y+5750000D03*
X-3726000Y+5750000D03*
D18*
X-13500000Y+11500000D02*
X+7250000Y+11500000D01*
X+7250000Y+500000D01*
X-11000000Y+500000D01*
X-13500000Y+11500000D02*
X-13500000Y+3250000D01*
X-11000000Y+500000D01*
M02*
