G04 PROTEUS GERBER X2 FILE*
%TF.GenerationSoftware,Labcenter,Proteus,8.7-SP3-Build25561*%
%TF.CreationDate,2020-08-12T13:03:35+00:00*%
%TF.FileFunction,Soldermask,Bot*%
%TF.FilePolarity,Negative*%
%TF.Part,Single*%
%TF.SameCoordinates,{83fe10cb-d733-4169-9c25-5540115bc659}*%
%FSLAX45Y45*%
%MOMM*%
G01*
%TA.AperFunction,Material*%
%ADD71C,1.016000*%
%AMPPAD012*
4,1,36,
-1.016000,1.143000,
1.016000,1.143000,
1.041970,1.140470,
1.065980,1.133200,
1.087580,1.121650,
1.106290,1.106290,
1.121650,1.087570,
1.133200,1.065980,
1.140470,1.041970,
1.143000,1.016000,
1.143000,-1.016000,
1.140470,-1.041970,
1.133200,-1.065980,
1.121650,-1.087570,
1.106290,-1.106290,
1.087580,-1.121650,
1.065980,-1.133200,
1.041970,-1.140470,
1.016000,-1.143000,
-1.016000,-1.143000,
-1.041970,-1.140470,
-1.065980,-1.133200,
-1.087580,-1.121650,
-1.106290,-1.106290,
-1.121650,-1.087570,
-1.133200,-1.065980,
-1.140470,-1.041970,
-1.143000,-1.016000,
-1.143000,1.016000,
-1.140470,1.041970,
-1.133200,1.065980,
-1.121650,1.087570,
-1.106290,1.106290,
-1.087580,1.121650,
-1.065980,1.133200,
-1.041970,1.140470,
-1.016000,1.143000,
0*%
%TA.AperFunction,Material*%
%ADD20PPAD012*%
%TA.AperFunction,Material*%
%ADD21C,3.302000*%
%AMPPAD014*
4,1,8,
-1.397000,-0.509800,
-1.397000,0.509800,
-1.017800,0.889000,
1.017800,0.889000,
1.397000,0.509800,
1.397000,-0.509800,
1.017800,-0.889000,
-1.017800,-0.889000,
-1.397000,-0.509800,
0*%
%TA.AperFunction,Material*%
%ADD22PPAD014*%
%AMPPAD015*
4,1,8,
-0.509800,1.397000,
0.509800,1.397000,
0.889000,1.017800,
0.889000,-1.017800,
0.509800,-1.397000,
-0.509800,-1.397000,
-0.889000,-1.017800,
-0.889000,1.017800,
-0.509800,1.397000,
0*%
%ADD23PPAD015*%
%TA.AperFunction,Material*%
%ADD24C,2.032000*%
%AMPPAD017*
4,1,36,
-2.032000,-1.905000,
-2.032000,1.905000,
-2.029470,1.930970,
-2.022200,1.954980,
-2.010650,1.976580,
-1.995290,1.995290,
-1.976570,2.010650,
-1.954980,2.022200,
-1.930970,2.029470,
-1.905000,2.032000,
1.905000,2.032000,
1.930970,2.029470,
1.954980,2.022200,
1.976570,2.010650,
1.995290,1.995290,
2.010650,1.976580,
2.022200,1.954980,
2.029470,1.930970,
2.032000,1.905000,
2.032000,-1.905000,
2.029470,-1.930970,
2.022200,-1.954980,
2.010650,-1.976580,
1.995290,-1.995290,
1.976570,-2.010650,
1.954980,-2.022200,
1.930970,-2.029470,
1.905000,-2.032000,
-1.905000,-2.032000,
-1.930970,-2.029470,
-1.954980,-2.022200,
-1.976570,-2.010650,
-1.995290,-1.995290,
-2.010650,-1.976580,
-2.022200,-1.954980,
-2.029470,-1.930970,
-2.032000,-1.905000,
0*%
%TA.AperFunction,Material*%
%ADD25PPAD017*%
%TA.AperFunction,Profile*%
%ADD18C,0.203200*%
%TD.AperFunction*%
D71*
X-603667Y+6672007D03*
X-283419Y+6796373D03*
X-3256137Y+6645681D03*
X-3967619Y+5471587D03*
X-4155000Y+5100900D03*
X-2042567Y+5100900D03*
D20*
X-3500000Y+8250000D03*
X-3246000Y+8250000D03*
X-2992000Y+8250000D03*
X-2738000Y+8250000D03*
X-2484000Y+8250000D03*
X-2230000Y+8250000D03*
X-1976000Y+8250000D03*
X-1722000Y+8250000D03*
X-1468000Y+8250000D03*
X-1214000Y+8250000D03*
X-960000Y+8250000D03*
X-706000Y+8250000D03*
X-452000Y+8250000D03*
X-198000Y+8250000D03*
X+56000Y+8250000D03*
X+310000Y+8250000D03*
X+564000Y+8250000D03*
X+818000Y+8250000D03*
X-3500000Y+7500000D03*
X-3246000Y+7500000D03*
X-2992000Y+7500000D03*
X-2738000Y+7500000D03*
X-2484000Y+7500000D03*
X-2230000Y+7500000D03*
X-1976000Y+7500000D03*
X-1722000Y+7500000D03*
X-1468000Y+7500000D03*
X-1214000Y+7500000D03*
X-960000Y+7500000D03*
X-706000Y+7500000D03*
X-452000Y+7500000D03*
X-198000Y+7500000D03*
X+56000Y+7500000D03*
X+310000Y+7500000D03*
X+564000Y+7500000D03*
X+818000Y+7500000D03*
D21*
X-8992000Y+3000000D03*
X-9500000Y+3000000D03*
D20*
X-8996000Y+4500000D03*
X-9250000Y+4500000D03*
X-9504000Y+4500000D03*
X-8996000Y+5500000D03*
X-9250000Y+5500000D03*
X-9504000Y+5500000D03*
D22*
X-10500000Y+4976000D03*
X-10500000Y+5230000D03*
X-10500000Y+5484000D03*
X-10500000Y+5738000D03*
X-10500000Y+5992000D03*
X-10500000Y+6246000D03*
X-10500000Y+6500000D03*
X-10500000Y+6754000D03*
X-10500000Y+7008000D03*
X-10500000Y+7262000D03*
D21*
X-9750000Y+6750000D03*
X-9242000Y+6750000D03*
D23*
X-8250000Y+5500000D03*
X-7996000Y+5500000D03*
X-7742000Y+5500000D03*
X-7488000Y+5500000D03*
X-7234000Y+5500000D03*
X-6980000Y+5500000D03*
X-6726000Y+5500000D03*
X-6472000Y+5500000D03*
X-6218000Y+5500000D03*
X-5964000Y+5500000D03*
D21*
X-7000000Y+2750000D03*
X-6492000Y+2750000D03*
X-5750000Y+2750000D03*
X-5242000Y+2750000D03*
X-4500000Y+2750000D03*
X-3992000Y+2750000D03*
D23*
X-8500000Y+6750000D03*
X-8246000Y+6750000D03*
X-7992000Y+6750000D03*
X-7738000Y+6750000D03*
X-7484000Y+6750000D03*
X-7230000Y+6750000D03*
X-6976000Y+6750000D03*
X-6722000Y+6750000D03*
X-6468000Y+6750000D03*
X-6214000Y+6750000D03*
X-8500000Y+7250000D03*
X-8246000Y+7250000D03*
X-7992000Y+7250000D03*
X-7738000Y+7250000D03*
X-7484000Y+7250000D03*
X-7230000Y+7250000D03*
X-6976000Y+7250000D03*
X-6722000Y+7250000D03*
X-6468000Y+7250000D03*
X-6214000Y+7250000D03*
D21*
X-1500000Y+2750000D03*
X-992000Y+2750000D03*
X-5750000Y+8250000D03*
X-5242000Y+8250000D03*
X-4734000Y+8250000D03*
X-4226000Y+8250000D03*
X-8000000Y+8250000D03*
X-7492000Y+8250000D03*
X-6984000Y+8250000D03*
X-6476000Y+8250000D03*
X-12000000Y+6250000D03*
X-12000000Y+6758000D03*
X-12000000Y+7266000D03*
X-12000000Y+7774000D03*
X-12000000Y+4250000D03*
X-12000000Y+4758000D03*
X-12000000Y+5266000D03*
X-12000000Y+5774000D03*
X-2250000Y+10000000D03*
X-1742000Y+10000000D03*
D24*
X-7000000Y+3750000D03*
X-7000000Y+4766000D03*
X-5500000Y+3750000D03*
X-5500000Y+4766000D03*
X-4500000Y+3750000D03*
X-4500000Y+4766000D03*
D21*
X-3250000Y+2750000D03*
X-2742000Y+2750000D03*
D24*
X-2000000Y+3750000D03*
X-2000000Y+4766000D03*
D21*
X+0Y+2750000D03*
X+508000Y+2750000D03*
X+1750000Y+2750000D03*
X+2258000Y+2750000D03*
X+3500000Y+2750000D03*
X+4008000Y+2750000D03*
X+5750000Y+2750000D03*
X+6258000Y+2750000D03*
D25*
X+1000000Y+5203900D03*
X+1000000Y+5750000D03*
X+1000000Y+6296100D03*
X+2250000Y+5157800D03*
X+2250000Y+5703900D03*
X+2250000Y+6250000D03*
X+3750000Y+5203900D03*
X+3750000Y+5750000D03*
X+3750000Y+6296100D03*
X+5250000Y+5203900D03*
X+5250000Y+5750000D03*
X+5250000Y+6296100D03*
D24*
X+3250000Y+4750000D03*
X+3250000Y+3734000D03*
X+762000Y+3750000D03*
X+0Y+3750000D03*
X+2512000Y+3750000D03*
X+1750000Y+3750000D03*
X+3762000Y+3500000D03*
X+3000000Y+3500000D03*
X+6512000Y+3500000D03*
X+5750000Y+3500000D03*
X+250000Y+6250000D03*
X+250000Y+5234000D03*
X+1750000Y+6250000D03*
X+1750000Y+5234000D03*
X+5750000Y+6500000D03*
X+5750000Y+5484000D03*
D21*
X-5250000Y+5750000D03*
X-4742000Y+5750000D03*
X-4234000Y+5750000D03*
X-3726000Y+5750000D03*
D18*
X-13500000Y+11500000D02*
X+7250000Y+11500000D01*
X+7250000Y+500000D01*
X-11000000Y+500000D01*
X-13500000Y+11500000D02*
X-13500000Y+3250000D01*
X-11000000Y+500000D01*
M02*
