G04 PROTEUS GERBER X2 FILE*
%TF.GenerationSoftware,Labcenter,Proteus,8.7-SP3-Build25561*%
%TF.CreationDate,2020-08-12T13:03:35+00:00*%
%TF.FileFunction,Legend,Top*%
%TF.FilePolarity,Positive*%
%TF.Part,Single*%
%TF.SameCoordinates,{83fe10cb-d733-4169-9c25-5540115bc659}*%
%FSLAX45Y45*%
%MOMM*%
G01*
%TA.AperFunction,Material*%
%ADD19C,0.203200*%
%TA.AperFunction,Profile*%
%ADD18C,0.203200*%
%TA.AperFunction,NonMaterial*%
%ADD70C,0.203200*%
%TD.AperFunction*%
D19*
X-3627000Y+8123000D02*
X+945000Y+8123000D01*
X+945000Y+8377000D01*
X-3627000Y+8377000D01*
X-3627000Y+8123000D01*
X-3373000Y+8377000D02*
X-3373000Y+8123000D01*
X-1976000Y+8509080D02*
X-1880750Y+8509080D01*
X-1928375Y+8509080D02*
X-1928375Y+8417640D01*
X-1849000Y+8478600D02*
X-1817250Y+8509080D01*
X-1785500Y+8509080D01*
X-1753750Y+8478600D01*
X-1753750Y+8448120D01*
X-1785500Y+8417640D01*
X-1817250Y+8417640D01*
X-1849000Y+8448120D01*
X-1849000Y+8478600D01*
X-1722000Y+8402400D02*
X-1626750Y+8402400D01*
X-1595000Y+8417640D02*
X-1595000Y+8478600D01*
X-1563250Y+8509080D01*
X-1531500Y+8509080D01*
X-1499750Y+8478600D01*
X-1499750Y+8417640D01*
X-1595000Y+8448120D02*
X-1499750Y+8448120D01*
X-1468000Y+8417640D02*
X-1468000Y+8509080D01*
X-1388625Y+8509080D01*
X-1372750Y+8493840D01*
X-1372750Y+8478600D01*
X-1388625Y+8463360D01*
X-1468000Y+8463360D01*
X-1388625Y+8463360D02*
X-1372750Y+8448120D01*
X-1372750Y+8417640D01*
X-1341000Y+8417640D02*
X-1341000Y+8509080D01*
X-1277500Y+8509080D01*
X-1245750Y+8478600D01*
X-1245750Y+8448120D01*
X-1277500Y+8417640D01*
X-1341000Y+8417640D01*
X-1214000Y+8509080D02*
X-1214000Y+8432880D01*
X-1198125Y+8417640D01*
X-1134625Y+8417640D01*
X-1118750Y+8432880D01*
X-1118750Y+8509080D01*
X-1071125Y+8509080D02*
X-1007625Y+8509080D01*
X-1039375Y+8509080D02*
X-1039375Y+8417640D01*
X-1071125Y+8417640D02*
X-1007625Y+8417640D01*
X-960000Y+8417640D02*
X-960000Y+8509080D01*
X-864750Y+8417640D01*
X-864750Y+8509080D01*
X-833000Y+8478600D02*
X-801250Y+8509080D01*
X-769500Y+8509080D01*
X-737750Y+8478600D01*
X-737750Y+8448120D01*
X-769500Y+8417640D01*
X-801250Y+8417640D01*
X-833000Y+8448120D01*
X-833000Y+8478600D01*
X-3627000Y+7373000D02*
X+945000Y+7373000D01*
X+945000Y+7627000D01*
X-3627000Y+7627000D01*
X-3627000Y+7373000D01*
X-3373000Y+7627000D02*
X-3373000Y+7373000D01*
X-1468000Y+7698120D02*
X-1468000Y+7682880D01*
X-1452125Y+7667640D01*
X-1388625Y+7667640D01*
X-1372750Y+7682880D01*
X-1372750Y+7759080D01*
X-1309250Y+7728600D02*
X-1277500Y+7759080D01*
X-1277500Y+7667640D01*
X-8738000Y+2492000D02*
X-8738000Y+3508000D01*
X-9754000Y+2492000D02*
X-9754000Y+3508000D01*
X-8738000Y+3508000D02*
X-9754000Y+3508000D01*
X-8738000Y+2492000D02*
X-9754000Y+2492000D01*
X-9785750Y+2420880D02*
X-9754000Y+2451360D01*
X-9754000Y+2359920D01*
X-9674625Y+2436120D02*
X-9658750Y+2451360D01*
X-9611125Y+2451360D01*
X-9595250Y+2436120D01*
X-9595250Y+2420880D01*
X-9611125Y+2405640D01*
X-9658750Y+2405640D01*
X-9674625Y+2390400D01*
X-9674625Y+2359920D01*
X-9595250Y+2359920D01*
X-9563500Y+2451360D02*
X-9563500Y+2405640D01*
X-9515875Y+2359920D01*
X-9468250Y+2405640D01*
X-9468250Y+2451360D01*
X-9293625Y+2451360D02*
X-9230125Y+2451360D01*
X-9261875Y+2451360D02*
X-9261875Y+2359920D01*
X-9293625Y+2359920D02*
X-9230125Y+2359920D01*
X-9182500Y+2359920D02*
X-9182500Y+2451360D01*
X-9087250Y+2359920D01*
X-9087250Y+2451360D01*
X-9055500Y+2359920D02*
X-9055500Y+2451360D01*
X-8976125Y+2451360D01*
X-8960250Y+2436120D01*
X-8960250Y+2420880D01*
X-8976125Y+2405640D01*
X-9055500Y+2405640D01*
X-8928500Y+2451360D02*
X-8928500Y+2375160D01*
X-8912625Y+2359920D01*
X-8849125Y+2359920D01*
X-8833250Y+2375160D01*
X-8833250Y+2451360D01*
X-8801500Y+2451360D02*
X-8706250Y+2451360D01*
X-8753875Y+2451360D02*
X-8753875Y+2359920D01*
X-9631000Y+4373000D02*
X-8869000Y+4373000D01*
X-8869000Y+4627000D01*
X-9631000Y+4627000D01*
X-9631000Y+4373000D01*
X-8869000Y+4373000D02*
X-8869000Y+4246000D01*
X-9631000Y+4246000D01*
X-9631000Y+4373000D01*
X-8869000Y+4373000D02*
X-8996000Y+4246000D01*
X-8996000Y+4373000D02*
X-9123000Y+4246000D01*
X-9123000Y+4373000D02*
X-9250000Y+4246000D01*
X-9250000Y+4373000D02*
X-9377000Y+4246000D01*
X-9377000Y+4373000D02*
X-9504000Y+4246000D01*
X-9504000Y+4373000D02*
X-9631000Y+4246000D01*
X-9567500Y+4113920D02*
X-9567500Y+4205360D01*
X-9488125Y+4205360D01*
X-9472250Y+4190120D01*
X-9472250Y+4174880D01*
X-9488125Y+4159640D01*
X-9567500Y+4159640D01*
X-9488125Y+4159640D02*
X-9472250Y+4144400D01*
X-9472250Y+4113920D01*
X-9345250Y+4113920D02*
X-9440500Y+4113920D01*
X-9440500Y+4205360D01*
X-9345250Y+4205360D01*
X-9440500Y+4159640D02*
X-9377000Y+4159640D01*
X-9250000Y+4144400D02*
X-9218250Y+4144400D01*
X-9218250Y+4113920D01*
X-9281750Y+4113920D01*
X-9313500Y+4144400D01*
X-9313500Y+4174880D01*
X-9281750Y+4205360D01*
X-9234125Y+4205360D01*
X-9218250Y+4190120D01*
X-9170625Y+4159640D02*
X-9091250Y+4159640D01*
X-9043625Y+4190120D02*
X-9027750Y+4205360D01*
X-8980125Y+4205360D01*
X-8964250Y+4190120D01*
X-8964250Y+4174880D01*
X-8980125Y+4159640D01*
X-9027750Y+4159640D01*
X-9043625Y+4144400D01*
X-9043625Y+4113920D01*
X-8964250Y+4113920D01*
X-9631000Y+5373000D02*
X-8869000Y+5373000D01*
X-8869000Y+5627000D01*
X-9631000Y+5627000D01*
X-9631000Y+5373000D01*
X-8869000Y+5373000D02*
X-8869000Y+5246000D01*
X-9631000Y+5246000D01*
X-9631000Y+5373000D01*
X-8869000Y+5373000D02*
X-8996000Y+5246000D01*
X-8996000Y+5373000D02*
X-9123000Y+5246000D01*
X-9123000Y+5373000D02*
X-9250000Y+5246000D01*
X-9250000Y+5373000D02*
X-9377000Y+5246000D01*
X-9377000Y+5373000D02*
X-9504000Y+5246000D01*
X-9504000Y+5373000D02*
X-9631000Y+5246000D01*
X-9567500Y+5113920D02*
X-9567500Y+5205360D01*
X-9488125Y+5205360D01*
X-9472250Y+5190120D01*
X-9472250Y+5174880D01*
X-9488125Y+5159640D01*
X-9567500Y+5159640D01*
X-9488125Y+5159640D02*
X-9472250Y+5144400D01*
X-9472250Y+5113920D01*
X-9345250Y+5113920D02*
X-9440500Y+5113920D01*
X-9440500Y+5205360D01*
X-9345250Y+5205360D01*
X-9440500Y+5159640D02*
X-9377000Y+5159640D01*
X-9250000Y+5144400D02*
X-9218250Y+5144400D01*
X-9218250Y+5113920D01*
X-9281750Y+5113920D01*
X-9313500Y+5144400D01*
X-9313500Y+5174880D01*
X-9281750Y+5205360D01*
X-9234125Y+5205360D01*
X-9218250Y+5190120D01*
X-9170625Y+5159640D02*
X-9091250Y+5159640D01*
X-9027750Y+5174880D02*
X-8996000Y+5205360D01*
X-8996000Y+5113920D01*
X-10690500Y+4849000D02*
X-10309500Y+4849000D01*
X-10309500Y+7389000D01*
X-10690500Y+7389000D01*
X-10690500Y+4849000D01*
X-10822580Y+5611000D02*
X-10776860Y+5611000D01*
X-10731140Y+5658625D01*
X-10776860Y+5706250D01*
X-10822580Y+5706250D01*
X-10746380Y+5833250D02*
X-10731140Y+5817375D01*
X-10731140Y+5769750D01*
X-10761620Y+5738000D01*
X-10792100Y+5738000D01*
X-10822580Y+5769750D01*
X-10822580Y+5817375D01*
X-10807340Y+5833250D01*
X-10746380Y+5960250D02*
X-10731140Y+5944375D01*
X-10731140Y+5896750D01*
X-10761620Y+5865000D01*
X-10792100Y+5865000D01*
X-10822580Y+5896750D01*
X-10822580Y+5944375D01*
X-10807340Y+5960250D01*
X-10731140Y+6119000D02*
X-10822580Y+6119000D01*
X-10822580Y+6198375D01*
X-10807340Y+6214250D01*
X-10792100Y+6214250D01*
X-10776860Y+6198375D01*
X-10776860Y+6119000D01*
X-10776860Y+6198375D02*
X-10761620Y+6214250D01*
X-10731140Y+6214250D01*
X-10731140Y+6246000D02*
X-10792100Y+6246000D01*
X-10822580Y+6277750D01*
X-10822580Y+6309500D01*
X-10792100Y+6341250D01*
X-10731140Y+6341250D01*
X-10761620Y+6246000D02*
X-10761620Y+6341250D01*
X-10822580Y+6388875D02*
X-10822580Y+6452375D01*
X-10822580Y+6420625D02*
X-10731140Y+6420625D01*
X-10731140Y+6388875D02*
X-10731140Y+6452375D01*
X-10822580Y+6500000D02*
X-10731140Y+6500000D01*
X-10731140Y+6595250D01*
X-10004000Y+7258000D02*
X-10004000Y+6242000D01*
X-8988000Y+7258000D02*
X-8988000Y+6242000D01*
X-10004000Y+6242000D02*
X-8988000Y+6242000D01*
X-10004000Y+7258000D02*
X-8988000Y+7258000D01*
X-9781750Y+7390080D02*
X-9861125Y+7390080D01*
X-9861125Y+7359600D01*
X-9797625Y+7359600D01*
X-9781750Y+7344360D01*
X-9781750Y+7313880D01*
X-9797625Y+7298640D01*
X-9845250Y+7298640D01*
X-9861125Y+7313880D01*
X-9750000Y+7390080D02*
X-9750000Y+7344360D01*
X-9702375Y+7298640D01*
X-9654750Y+7344360D01*
X-9654750Y+7390080D01*
X-9607125Y+7344360D02*
X-9527750Y+7344360D01*
X-9496000Y+7359600D02*
X-9464250Y+7390080D01*
X-9432500Y+7390080D01*
X-9400750Y+7359600D01*
X-9400750Y+7329120D01*
X-9432500Y+7298640D01*
X-9464250Y+7298640D01*
X-9496000Y+7329120D01*
X-9496000Y+7359600D01*
X-9369000Y+7390080D02*
X-9369000Y+7313880D01*
X-9353125Y+7298640D01*
X-9289625Y+7298640D01*
X-9273750Y+7313880D01*
X-9273750Y+7390080D01*
X-9242000Y+7390080D02*
X-9146750Y+7390080D01*
X-9194375Y+7390080D02*
X-9194375Y+7298640D01*
X-8377000Y+5309500D02*
X-5837000Y+5309500D01*
X-5837000Y+5690500D01*
X-8377000Y+5690500D01*
X-8377000Y+5309500D01*
X-7583250Y+5792100D02*
X-7551500Y+5822580D01*
X-7551500Y+5731140D01*
X-7472125Y+5807340D02*
X-7456250Y+5822580D01*
X-7408625Y+5822580D01*
X-7392750Y+5807340D01*
X-7392750Y+5792100D01*
X-7408625Y+5776860D01*
X-7456250Y+5776860D01*
X-7472125Y+5761620D01*
X-7472125Y+5731140D01*
X-7392750Y+5731140D01*
X-7361000Y+5822580D02*
X-7361000Y+5776860D01*
X-7313375Y+5731140D01*
X-7265750Y+5776860D01*
X-7265750Y+5822580D01*
X-7218125Y+5776860D02*
X-7138750Y+5776860D01*
X-7107000Y+5731140D02*
X-7107000Y+5822580D01*
X-7027625Y+5822580D01*
X-7011750Y+5807340D01*
X-7011750Y+5792100D01*
X-7027625Y+5776860D01*
X-7107000Y+5776860D01*
X-7027625Y+5776860D02*
X-7011750Y+5761620D01*
X-7011750Y+5731140D01*
X-6980000Y+5731140D02*
X-6980000Y+5792100D01*
X-6948250Y+5822580D01*
X-6916500Y+5822580D01*
X-6884750Y+5792100D01*
X-6884750Y+5731140D01*
X-6980000Y+5761620D02*
X-6884750Y+5761620D01*
X-6837125Y+5822580D02*
X-6773625Y+5822580D01*
X-6805375Y+5822580D02*
X-6805375Y+5731140D01*
X-6837125Y+5731140D02*
X-6773625Y+5731140D01*
X-6726000Y+5822580D02*
X-6726000Y+5731140D01*
X-6630750Y+5731140D01*
X-7254000Y+3258000D02*
X-7254000Y+2242000D01*
X-6238000Y+3258000D02*
X-6238000Y+2242000D01*
X-7254000Y+2242000D02*
X-6238000Y+2242000D01*
X-7254000Y+3258000D02*
X-6238000Y+3258000D01*
X-7127000Y+3329120D02*
X-7095250Y+3329120D01*
X-7095250Y+3298640D01*
X-7158750Y+3298640D01*
X-7190500Y+3329120D01*
X-7190500Y+3359600D01*
X-7158750Y+3390080D01*
X-7111125Y+3390080D01*
X-7095250Y+3374840D01*
X-6968250Y+3298640D02*
X-7063500Y+3298640D01*
X-7063500Y+3390080D01*
X-6968250Y+3390080D01*
X-7063500Y+3344360D02*
X-7000000Y+3344360D01*
X-6936500Y+3298640D02*
X-6936500Y+3359600D01*
X-6904750Y+3390080D01*
X-6873000Y+3390080D01*
X-6841250Y+3359600D01*
X-6841250Y+3298640D01*
X-6936500Y+3329120D02*
X-6841250Y+3329120D01*
X-6809500Y+3298640D02*
X-6809500Y+3390080D01*
X-6730125Y+3390080D01*
X-6714250Y+3374840D01*
X-6714250Y+3359600D01*
X-6730125Y+3344360D01*
X-6809500Y+3344360D01*
X-6730125Y+3344360D02*
X-6714250Y+3329120D01*
X-6714250Y+3298640D01*
X-6666625Y+3344360D02*
X-6587250Y+3344360D01*
X-6555500Y+3390080D02*
X-6555500Y+3313880D01*
X-6539625Y+3298640D01*
X-6476125Y+3298640D01*
X-6460250Y+3313880D01*
X-6460250Y+3390080D01*
X-6428500Y+3298640D02*
X-6428500Y+3390080D01*
X-6349125Y+3390080D01*
X-6333250Y+3374840D01*
X-6333250Y+3359600D01*
X-6349125Y+3344360D01*
X-6428500Y+3344360D01*
X-6004000Y+3258000D02*
X-6004000Y+2242000D01*
X-4988000Y+3258000D02*
X-4988000Y+2242000D01*
X-6004000Y+2242000D02*
X-4988000Y+2242000D01*
X-6004000Y+3258000D02*
X-4988000Y+3258000D01*
X-5813500Y+3329120D02*
X-5781750Y+3329120D01*
X-5781750Y+3298640D01*
X-5845250Y+3298640D01*
X-5877000Y+3329120D01*
X-5877000Y+3359600D01*
X-5845250Y+3390080D01*
X-5797625Y+3390080D01*
X-5781750Y+3374840D01*
X-5654750Y+3298640D02*
X-5750000Y+3298640D01*
X-5750000Y+3390080D01*
X-5654750Y+3390080D01*
X-5750000Y+3344360D02*
X-5686500Y+3344360D01*
X-5623000Y+3298640D02*
X-5623000Y+3359600D01*
X-5591250Y+3390080D01*
X-5559500Y+3390080D01*
X-5527750Y+3359600D01*
X-5527750Y+3298640D01*
X-5623000Y+3329120D02*
X-5527750Y+3329120D01*
X-5496000Y+3298640D02*
X-5496000Y+3390080D01*
X-5416625Y+3390080D01*
X-5400750Y+3374840D01*
X-5400750Y+3359600D01*
X-5416625Y+3344360D01*
X-5496000Y+3344360D01*
X-5416625Y+3344360D02*
X-5400750Y+3329120D01*
X-5400750Y+3298640D01*
X-5353125Y+3344360D02*
X-5273750Y+3344360D01*
X-5242000Y+3298640D02*
X-5242000Y+3390080D01*
X-5178500Y+3390080D01*
X-5146750Y+3359600D01*
X-5146750Y+3329120D01*
X-5178500Y+3298640D01*
X-5242000Y+3298640D01*
X-4754000Y+3258000D02*
X-4754000Y+2242000D01*
X-3738000Y+3258000D02*
X-3738000Y+2242000D01*
X-4754000Y+2242000D02*
X-3738000Y+2242000D01*
X-4754000Y+3258000D02*
X-3738000Y+3258000D01*
X-4627000Y+3329120D02*
X-4595250Y+3329120D01*
X-4595250Y+3298640D01*
X-4658750Y+3298640D01*
X-4690500Y+3329120D01*
X-4690500Y+3359600D01*
X-4658750Y+3390080D01*
X-4611125Y+3390080D01*
X-4595250Y+3374840D01*
X-4468250Y+3298640D02*
X-4563500Y+3298640D01*
X-4563500Y+3390080D01*
X-4468250Y+3390080D01*
X-4563500Y+3344360D02*
X-4500000Y+3344360D01*
X-4436500Y+3298640D02*
X-4436500Y+3359600D01*
X-4404750Y+3390080D01*
X-4373000Y+3390080D01*
X-4341250Y+3359600D01*
X-4341250Y+3298640D01*
X-4436500Y+3329120D02*
X-4341250Y+3329120D01*
X-4309500Y+3298640D02*
X-4309500Y+3390080D01*
X-4230125Y+3390080D01*
X-4214250Y+3374840D01*
X-4214250Y+3359600D01*
X-4230125Y+3344360D01*
X-4309500Y+3344360D01*
X-4230125Y+3344360D02*
X-4214250Y+3329120D01*
X-4214250Y+3298640D01*
X-4166625Y+3344360D02*
X-4087250Y+3344360D01*
X-4055500Y+3313880D02*
X-4039625Y+3298640D01*
X-3976125Y+3298640D01*
X-3960250Y+3313880D01*
X-3960250Y+3329120D01*
X-3976125Y+3344360D01*
X-4039625Y+3344360D01*
X-4055500Y+3359600D01*
X-4055500Y+3374840D01*
X-4039625Y+3390080D01*
X-3976125Y+3390080D01*
X-3960250Y+3374840D01*
X-3928500Y+3298640D02*
X-3928500Y+3390080D01*
X-3849125Y+3390080D01*
X-3833250Y+3374840D01*
X-3833250Y+3359600D01*
X-3849125Y+3344360D01*
X-3928500Y+3344360D01*
X-8627000Y+6559500D02*
X-6087000Y+6559500D01*
X-6087000Y+6940500D01*
X-8627000Y+6940500D01*
X-8627000Y+6559500D01*
X-7801500Y+7011620D02*
X-7769750Y+7011620D01*
X-7769750Y+6981140D01*
X-7833250Y+6981140D01*
X-7865000Y+7011620D01*
X-7865000Y+7042100D01*
X-7833250Y+7072580D01*
X-7785625Y+7072580D01*
X-7769750Y+7057340D01*
X-7738000Y+6981140D02*
X-7738000Y+7072580D01*
X-7642750Y+6981140D01*
X-7642750Y+7072580D01*
X-7611000Y+6981140D02*
X-7611000Y+7072580D01*
X-7547500Y+7072580D01*
X-7515750Y+7042100D01*
X-7515750Y+7011620D01*
X-7547500Y+6981140D01*
X-7611000Y+6981140D01*
X-7468125Y+7026860D02*
X-7388750Y+7026860D01*
X-7357000Y+6981140D02*
X-7357000Y+7072580D01*
X-7277625Y+7072580D01*
X-7261750Y+7057340D01*
X-7261750Y+7042100D01*
X-7277625Y+7026860D01*
X-7357000Y+7026860D01*
X-7277625Y+7026860D02*
X-7261750Y+7011620D01*
X-7261750Y+6981140D01*
X-7230000Y+6981140D02*
X-7230000Y+7042100D01*
X-7198250Y+7072580D01*
X-7166500Y+7072580D01*
X-7134750Y+7042100D01*
X-7134750Y+6981140D01*
X-7230000Y+7011620D02*
X-7134750Y+7011620D01*
X-7087125Y+7072580D02*
X-7023625Y+7072580D01*
X-7055375Y+7072580D02*
X-7055375Y+6981140D01*
X-7087125Y+6981140D02*
X-7023625Y+6981140D01*
X-6976000Y+7072580D02*
X-6976000Y+6981140D01*
X-6880750Y+6981140D01*
X-8627000Y+7059500D02*
X-6087000Y+7059500D01*
X-6087000Y+7440500D01*
X-8627000Y+7440500D01*
X-8627000Y+7059500D01*
X-7865000Y+7511620D02*
X-7833250Y+7511620D01*
X-7833250Y+7481140D01*
X-7896750Y+7481140D01*
X-7928500Y+7511620D01*
X-7928500Y+7542100D01*
X-7896750Y+7572580D01*
X-7849125Y+7572580D01*
X-7833250Y+7557340D01*
X-7801500Y+7481140D02*
X-7801500Y+7572580D01*
X-7706250Y+7481140D01*
X-7706250Y+7572580D01*
X-7674500Y+7481140D02*
X-7674500Y+7572580D01*
X-7611000Y+7572580D01*
X-7579250Y+7542100D01*
X-7579250Y+7511620D01*
X-7611000Y+7481140D01*
X-7674500Y+7481140D01*
X-7531625Y+7526860D02*
X-7452250Y+7526860D01*
X-7420500Y+7481140D02*
X-7420500Y+7572580D01*
X-7341125Y+7572580D01*
X-7325250Y+7557340D01*
X-7325250Y+7542100D01*
X-7341125Y+7526860D01*
X-7420500Y+7526860D01*
X-7341125Y+7526860D02*
X-7325250Y+7511620D01*
X-7325250Y+7481140D01*
X-7293500Y+7481140D02*
X-7293500Y+7542100D01*
X-7261750Y+7572580D01*
X-7230000Y+7572580D01*
X-7198250Y+7542100D01*
X-7198250Y+7481140D01*
X-7293500Y+7511620D02*
X-7198250Y+7511620D01*
X-7150625Y+7572580D02*
X-7087125Y+7572580D01*
X-7118875Y+7572580D02*
X-7118875Y+7481140D01*
X-7150625Y+7481140D02*
X-7087125Y+7481140D01*
X-7039500Y+7572580D02*
X-7039500Y+7481140D01*
X-6944250Y+7481140D01*
X-6880750Y+7542100D02*
X-6849000Y+7572580D01*
X-6849000Y+7481140D01*
X-1754000Y+3258000D02*
X-1754000Y+2242000D01*
X-738000Y+3258000D02*
X-738000Y+2242000D01*
X-1754000Y+2242000D02*
X-738000Y+2242000D01*
X-1754000Y+3258000D02*
X-738000Y+3258000D01*
X-1944500Y+3329120D02*
X-1912750Y+3329120D01*
X-1912750Y+3298640D01*
X-1976250Y+3298640D01*
X-2008000Y+3329120D01*
X-2008000Y+3359600D01*
X-1976250Y+3390080D01*
X-1928625Y+3390080D01*
X-1912750Y+3374840D01*
X-1881000Y+3298640D02*
X-1881000Y+3390080D01*
X-1801625Y+3390080D01*
X-1785750Y+3374840D01*
X-1785750Y+3359600D01*
X-1801625Y+3344360D01*
X-1881000Y+3344360D01*
X-1658750Y+3390080D02*
X-1754000Y+3298640D01*
X-1627000Y+3313880D02*
X-1611125Y+3298640D01*
X-1547625Y+3298640D01*
X-1531750Y+3313880D01*
X-1531750Y+3329120D01*
X-1547625Y+3344360D01*
X-1611125Y+3344360D01*
X-1627000Y+3359600D01*
X-1627000Y+3374840D01*
X-1611125Y+3390080D01*
X-1547625Y+3390080D01*
X-1531750Y+3374840D01*
X-1500000Y+3298640D02*
X-1500000Y+3390080D01*
X-1404750Y+3390080D02*
X-1404750Y+3298640D01*
X-1500000Y+3344360D02*
X-1404750Y+3344360D01*
X-1357125Y+3390080D02*
X-1293625Y+3390080D01*
X-1325375Y+3390080D02*
X-1325375Y+3298640D01*
X-1357125Y+3298640D02*
X-1293625Y+3298640D01*
X-1246000Y+3298640D02*
X-1246000Y+3390080D01*
X-1150750Y+3390080D01*
X-1246000Y+3344360D02*
X-1182500Y+3344360D01*
X-1119000Y+3390080D02*
X-1023750Y+3390080D01*
X-1071375Y+3390080D02*
X-1071375Y+3298640D01*
X-976125Y+3344360D02*
X-896750Y+3344360D01*
X-769750Y+3313880D02*
X-785625Y+3298640D01*
X-833250Y+3298640D01*
X-865000Y+3329120D01*
X-865000Y+3359600D01*
X-833250Y+3390080D01*
X-785625Y+3390080D01*
X-769750Y+3374840D01*
X-738000Y+3390080D02*
X-738000Y+3313880D01*
X-722125Y+3298640D01*
X-658625Y+3298640D01*
X-642750Y+3313880D01*
X-642750Y+3390080D01*
X-611000Y+3390080D02*
X-515750Y+3390080D01*
X-563375Y+3390080D02*
X-563375Y+3298640D01*
X-6004000Y+8758000D02*
X-6004000Y+7742000D01*
X-3972000Y+8758000D02*
X-3972000Y+7742000D01*
X-6004000Y+7742000D01*
X-6004000Y+8758000D02*
X-3972000Y+8758000D01*
X-5559500Y+8829120D02*
X-5527750Y+8829120D01*
X-5527750Y+8798640D01*
X-5591250Y+8798640D01*
X-5623000Y+8829120D01*
X-5623000Y+8859600D01*
X-5591250Y+8890080D01*
X-5543625Y+8890080D01*
X-5527750Y+8874840D01*
X-5496000Y+8798640D02*
X-5496000Y+8890080D01*
X-5400750Y+8798640D01*
X-5400750Y+8890080D01*
X-5369000Y+8798640D02*
X-5369000Y+8890080D01*
X-5305500Y+8890080D01*
X-5273750Y+8859600D01*
X-5273750Y+8829120D01*
X-5305500Y+8798640D01*
X-5369000Y+8798640D01*
X-5226125Y+8844360D02*
X-5146750Y+8844360D01*
X-5115000Y+8813880D02*
X-5099125Y+8798640D01*
X-5035625Y+8798640D01*
X-5019750Y+8813880D01*
X-5019750Y+8829120D01*
X-5035625Y+8844360D01*
X-5099125Y+8844360D01*
X-5115000Y+8859600D01*
X-5115000Y+8874840D01*
X-5099125Y+8890080D01*
X-5035625Y+8890080D01*
X-5019750Y+8874840D01*
X-4892750Y+8813880D02*
X-4908625Y+8798640D01*
X-4956250Y+8798640D01*
X-4988000Y+8829120D01*
X-4988000Y+8859600D01*
X-4956250Y+8890080D01*
X-4908625Y+8890080D01*
X-4892750Y+8874840D01*
X-4861000Y+8798640D02*
X-4861000Y+8890080D01*
X-4781625Y+8890080D01*
X-4765750Y+8874840D01*
X-4765750Y+8859600D01*
X-4781625Y+8844360D01*
X-4861000Y+8844360D01*
X-4781625Y+8844360D02*
X-4765750Y+8829120D01*
X-4765750Y+8798640D01*
X-4638750Y+8798640D02*
X-4734000Y+8798640D01*
X-4734000Y+8890080D01*
X-4638750Y+8890080D01*
X-4734000Y+8844360D02*
X-4670500Y+8844360D01*
X-4607000Y+8890080D02*
X-4607000Y+8798640D01*
X-4559375Y+8844360D01*
X-4511750Y+8798640D01*
X-4511750Y+8890080D01*
X-4464125Y+8874840D02*
X-4448250Y+8890080D01*
X-4400625Y+8890080D01*
X-4384750Y+8874840D01*
X-4384750Y+8859600D01*
X-4400625Y+8844360D01*
X-4448250Y+8844360D01*
X-4464125Y+8829120D01*
X-4464125Y+8798640D01*
X-4384750Y+8798640D01*
X-8254000Y+8758000D02*
X-8254000Y+7742000D01*
X-6222000Y+8758000D02*
X-6222000Y+7742000D01*
X-8254000Y+7742000D01*
X-8254000Y+8758000D02*
X-6222000Y+8758000D01*
X-7809500Y+8829120D02*
X-7777750Y+8829120D01*
X-7777750Y+8798640D01*
X-7841250Y+8798640D01*
X-7873000Y+8829120D01*
X-7873000Y+8859600D01*
X-7841250Y+8890080D01*
X-7793625Y+8890080D01*
X-7777750Y+8874840D01*
X-7746000Y+8798640D02*
X-7746000Y+8890080D01*
X-7650750Y+8798640D01*
X-7650750Y+8890080D01*
X-7619000Y+8798640D02*
X-7619000Y+8890080D01*
X-7555500Y+8890080D01*
X-7523750Y+8859600D01*
X-7523750Y+8829120D01*
X-7555500Y+8798640D01*
X-7619000Y+8798640D01*
X-7476125Y+8844360D02*
X-7396750Y+8844360D01*
X-7365000Y+8813880D02*
X-7349125Y+8798640D01*
X-7285625Y+8798640D01*
X-7269750Y+8813880D01*
X-7269750Y+8829120D01*
X-7285625Y+8844360D01*
X-7349125Y+8844360D01*
X-7365000Y+8859600D01*
X-7365000Y+8874840D01*
X-7349125Y+8890080D01*
X-7285625Y+8890080D01*
X-7269750Y+8874840D01*
X-7142750Y+8813880D02*
X-7158625Y+8798640D01*
X-7206250Y+8798640D01*
X-7238000Y+8829120D01*
X-7238000Y+8859600D01*
X-7206250Y+8890080D01*
X-7158625Y+8890080D01*
X-7142750Y+8874840D01*
X-7111000Y+8798640D02*
X-7111000Y+8890080D01*
X-7031625Y+8890080D01*
X-7015750Y+8874840D01*
X-7015750Y+8859600D01*
X-7031625Y+8844360D01*
X-7111000Y+8844360D01*
X-7031625Y+8844360D02*
X-7015750Y+8829120D01*
X-7015750Y+8798640D01*
X-6888750Y+8798640D02*
X-6984000Y+8798640D01*
X-6984000Y+8890080D01*
X-6888750Y+8890080D01*
X-6984000Y+8844360D02*
X-6920500Y+8844360D01*
X-6857000Y+8890080D02*
X-6857000Y+8798640D01*
X-6809375Y+8844360D01*
X-6761750Y+8798640D01*
X-6761750Y+8890080D01*
X-6698250Y+8859600D02*
X-6666500Y+8890080D01*
X-6666500Y+8798640D01*
X-12508000Y+5996000D02*
X-11492000Y+5996000D01*
X-12508000Y+8028000D02*
X-11492000Y+8028000D01*
X-11492000Y+5996000D01*
X-12508000Y+5996000D02*
X-12508000Y+8028000D01*
X-12640080Y+6599250D02*
X-12640080Y+6519875D01*
X-12609600Y+6519875D01*
X-12609600Y+6583375D01*
X-12594360Y+6599250D01*
X-12563880Y+6599250D01*
X-12548640Y+6583375D01*
X-12548640Y+6535750D01*
X-12563880Y+6519875D01*
X-12640080Y+6631000D02*
X-12594360Y+6631000D01*
X-12548640Y+6678625D01*
X-12594360Y+6726250D01*
X-12640080Y+6726250D01*
X-12594360Y+6773875D02*
X-12594360Y+6853250D01*
X-12563880Y+6885000D02*
X-12548640Y+6900875D01*
X-12548640Y+6964375D01*
X-12563880Y+6980250D01*
X-12579120Y+6980250D01*
X-12594360Y+6964375D01*
X-12594360Y+6900875D01*
X-12609600Y+6885000D01*
X-12624840Y+6885000D01*
X-12640080Y+6900875D01*
X-12640080Y+6964375D01*
X-12624840Y+6980250D01*
X-12563880Y+7107250D02*
X-12548640Y+7091375D01*
X-12548640Y+7043750D01*
X-12579120Y+7012000D01*
X-12609600Y+7012000D01*
X-12640080Y+7043750D01*
X-12640080Y+7091375D01*
X-12624840Y+7107250D01*
X-12548640Y+7139000D02*
X-12640080Y+7139000D01*
X-12640080Y+7218375D01*
X-12624840Y+7234250D01*
X-12609600Y+7234250D01*
X-12594360Y+7218375D01*
X-12594360Y+7139000D01*
X-12594360Y+7218375D02*
X-12579120Y+7234250D01*
X-12548640Y+7234250D01*
X-12548640Y+7361250D02*
X-12548640Y+7266000D01*
X-12640080Y+7266000D01*
X-12640080Y+7361250D01*
X-12594360Y+7266000D02*
X-12594360Y+7329500D01*
X-12640080Y+7393000D02*
X-12548640Y+7393000D01*
X-12594360Y+7440625D01*
X-12548640Y+7488250D01*
X-12640080Y+7488250D01*
X-12508000Y+3996000D02*
X-11492000Y+3996000D01*
X-12508000Y+6028000D02*
X-11492000Y+6028000D01*
X-11492000Y+3996000D01*
X-12508000Y+3996000D02*
X-12508000Y+6028000D01*
X-12640080Y+4535750D02*
X-12640080Y+4456375D01*
X-12609600Y+4456375D01*
X-12609600Y+4519875D01*
X-12594360Y+4535750D01*
X-12563880Y+4535750D01*
X-12548640Y+4519875D01*
X-12548640Y+4472250D01*
X-12563880Y+4456375D01*
X-12640080Y+4567500D02*
X-12594360Y+4567500D01*
X-12548640Y+4615125D01*
X-12594360Y+4662750D01*
X-12640080Y+4662750D01*
X-12594360Y+4710375D02*
X-12594360Y+4789750D01*
X-12563880Y+4821500D02*
X-12548640Y+4837375D01*
X-12548640Y+4900875D01*
X-12563880Y+4916750D01*
X-12579120Y+4916750D01*
X-12594360Y+4900875D01*
X-12594360Y+4837375D01*
X-12609600Y+4821500D01*
X-12624840Y+4821500D01*
X-12640080Y+4837375D01*
X-12640080Y+4900875D01*
X-12624840Y+4916750D01*
X-12563880Y+5043750D02*
X-12548640Y+5027875D01*
X-12548640Y+4980250D01*
X-12579120Y+4948500D01*
X-12609600Y+4948500D01*
X-12640080Y+4980250D01*
X-12640080Y+5027875D01*
X-12624840Y+5043750D01*
X-12548640Y+5075500D02*
X-12640080Y+5075500D01*
X-12640080Y+5154875D01*
X-12624840Y+5170750D01*
X-12609600Y+5170750D01*
X-12594360Y+5154875D01*
X-12594360Y+5075500D01*
X-12594360Y+5154875D02*
X-12579120Y+5170750D01*
X-12548640Y+5170750D01*
X-12548640Y+5297750D02*
X-12548640Y+5202500D01*
X-12640080Y+5202500D01*
X-12640080Y+5297750D01*
X-12594360Y+5202500D02*
X-12594360Y+5266000D01*
X-12640080Y+5329500D02*
X-12548640Y+5329500D01*
X-12594360Y+5377125D01*
X-12548640Y+5424750D01*
X-12640080Y+5424750D01*
X-12624840Y+5472375D02*
X-12640080Y+5488250D01*
X-12640080Y+5535875D01*
X-12624840Y+5551750D01*
X-12609600Y+5551750D01*
X-12594360Y+5535875D01*
X-12594360Y+5488250D01*
X-12579120Y+5472375D01*
X-12548640Y+5472375D01*
X-12548640Y+5551750D01*
X-2504000Y+10508000D02*
X-2504000Y+9492000D01*
X-1488000Y+10508000D02*
X-1488000Y+9492000D01*
X-2504000Y+9492000D02*
X-1488000Y+9492000D01*
X-2504000Y+10508000D02*
X-1488000Y+10508000D01*
X-2821500Y+10548640D02*
X-2821500Y+10640080D01*
X-2742125Y+10640080D01*
X-2726250Y+10624840D01*
X-2726250Y+10609600D01*
X-2742125Y+10594360D01*
X-2821500Y+10594360D01*
X-2694500Y+10609600D02*
X-2662750Y+10640080D01*
X-2631000Y+10640080D01*
X-2599250Y+10609600D01*
X-2599250Y+10579120D01*
X-2631000Y+10548640D01*
X-2662750Y+10548640D01*
X-2694500Y+10579120D01*
X-2694500Y+10609600D01*
X-2567500Y+10563880D02*
X-2551625Y+10548640D01*
X-2488125Y+10548640D01*
X-2472250Y+10563880D01*
X-2472250Y+10579120D01*
X-2488125Y+10594360D01*
X-2551625Y+10594360D01*
X-2567500Y+10609600D01*
X-2567500Y+10624840D01*
X-2551625Y+10640080D01*
X-2488125Y+10640080D01*
X-2472250Y+10624840D01*
X-2424625Y+10594360D02*
X-2345250Y+10594360D01*
X-2313500Y+10563880D02*
X-2297625Y+10548640D01*
X-2234125Y+10548640D01*
X-2218250Y+10563880D01*
X-2218250Y+10579120D01*
X-2234125Y+10594360D01*
X-2297625Y+10594360D01*
X-2313500Y+10609600D01*
X-2313500Y+10624840D01*
X-2297625Y+10640080D01*
X-2234125Y+10640080D01*
X-2218250Y+10624840D01*
X-2091250Y+10548640D02*
X-2186500Y+10548640D01*
X-2186500Y+10640080D01*
X-2091250Y+10640080D01*
X-2186500Y+10594360D02*
X-2123000Y+10594360D01*
X-2059500Y+10548640D02*
X-2059500Y+10640080D01*
X-1964250Y+10548640D01*
X-1964250Y+10640080D01*
X-1932500Y+10563880D02*
X-1916625Y+10548640D01*
X-1853125Y+10548640D01*
X-1837250Y+10563880D01*
X-1837250Y+10579120D01*
X-1853125Y+10594360D01*
X-1916625Y+10594360D01*
X-1932500Y+10609600D01*
X-1932500Y+10624840D01*
X-1916625Y+10640080D01*
X-1853125Y+10640080D01*
X-1837250Y+10624840D01*
X-1805500Y+10609600D02*
X-1773750Y+10640080D01*
X-1742000Y+10640080D01*
X-1710250Y+10609600D01*
X-1710250Y+10579120D01*
X-1742000Y+10548640D01*
X-1773750Y+10548640D01*
X-1805500Y+10579120D01*
X-1805500Y+10609600D01*
X-1678500Y+10548640D02*
X-1678500Y+10640080D01*
X-1599125Y+10640080D01*
X-1583250Y+10624840D01*
X-1583250Y+10609600D01*
X-1599125Y+10594360D01*
X-1678500Y+10594360D01*
X-1599125Y+10594360D02*
X-1583250Y+10579120D01*
X-1583250Y+10548640D01*
X-1535625Y+10594360D02*
X-1456250Y+10594360D01*
X-1408625Y+10640080D02*
X-1345125Y+10640080D01*
X-1376875Y+10640080D02*
X-1376875Y+10548640D01*
X-1408625Y+10548640D02*
X-1345125Y+10548640D01*
X-1297500Y+10548640D02*
X-1297500Y+10640080D01*
X-1202250Y+10548640D01*
X-1202250Y+10640080D01*
X-7000000Y+3877000D02*
X-7000000Y+4004000D01*
X-7063500Y+4004000D02*
X-6936500Y+4004000D01*
X-6936500Y+4512000D01*
X-7063500Y+4512000D01*
X-7063500Y+4004000D01*
X-7000000Y+4512000D02*
X-7000000Y+4639000D01*
X-7104140Y+4131000D02*
X-7195580Y+4131000D01*
X-7195580Y+4210375D01*
X-7180340Y+4226250D01*
X-7165100Y+4226250D01*
X-7149860Y+4210375D01*
X-7149860Y+4131000D01*
X-7149860Y+4210375D02*
X-7134620Y+4226250D01*
X-7104140Y+4226250D01*
X-7165100Y+4289750D02*
X-7195580Y+4321500D01*
X-7104140Y+4321500D01*
X-5500000Y+3877000D02*
X-5500000Y+4004000D01*
X-5563500Y+4004000D02*
X-5436500Y+4004000D01*
X-5436500Y+4512000D01*
X-5563500Y+4512000D01*
X-5563500Y+4004000D01*
X-5500000Y+4512000D02*
X-5500000Y+4639000D01*
X-5604140Y+4131000D02*
X-5695580Y+4131000D01*
X-5695580Y+4210375D01*
X-5680340Y+4226250D01*
X-5665100Y+4226250D01*
X-5649860Y+4210375D01*
X-5649860Y+4131000D01*
X-5649860Y+4210375D02*
X-5634620Y+4226250D01*
X-5604140Y+4226250D01*
X-5680340Y+4273875D02*
X-5695580Y+4289750D01*
X-5695580Y+4337375D01*
X-5680340Y+4353250D01*
X-5665100Y+4353250D01*
X-5649860Y+4337375D01*
X-5649860Y+4289750D01*
X-5634620Y+4273875D01*
X-5604140Y+4273875D01*
X-5604140Y+4353250D01*
X-4500000Y+3877000D02*
X-4500000Y+4004000D01*
X-4563500Y+4004000D02*
X-4436500Y+4004000D01*
X-4436500Y+4512000D01*
X-4563500Y+4512000D01*
X-4563500Y+4004000D01*
X-4500000Y+4512000D02*
X-4500000Y+4639000D01*
X-4604140Y+4131000D02*
X-4695580Y+4131000D01*
X-4695580Y+4210375D01*
X-4680340Y+4226250D01*
X-4665100Y+4226250D01*
X-4649860Y+4210375D01*
X-4649860Y+4131000D01*
X-4649860Y+4210375D02*
X-4634620Y+4226250D01*
X-4604140Y+4226250D01*
X-4680340Y+4273875D02*
X-4695580Y+4289750D01*
X-4695580Y+4337375D01*
X-4680340Y+4353250D01*
X-4665100Y+4353250D01*
X-4649860Y+4337375D01*
X-4634620Y+4353250D01*
X-4619380Y+4353250D01*
X-4604140Y+4337375D01*
X-4604140Y+4289750D01*
X-4619380Y+4273875D01*
X-4649860Y+4305625D02*
X-4649860Y+4337375D01*
X-3504000Y+3258000D02*
X-3504000Y+2242000D01*
X-2488000Y+3258000D02*
X-2488000Y+2242000D01*
X-3504000Y+2242000D02*
X-2488000Y+2242000D01*
X-3504000Y+3258000D02*
X-2488000Y+3258000D01*
X-3313500Y+3313880D02*
X-3297625Y+3298640D01*
X-3234125Y+3298640D01*
X-3218250Y+3313880D01*
X-3218250Y+3329120D01*
X-3234125Y+3344360D01*
X-3297625Y+3344360D01*
X-3313500Y+3359600D01*
X-3313500Y+3374840D01*
X-3297625Y+3390080D01*
X-3234125Y+3390080D01*
X-3218250Y+3374840D01*
X-3186500Y+3298640D02*
X-3186500Y+3390080D01*
X-3107125Y+3390080D01*
X-3091250Y+3374840D01*
X-3091250Y+3359600D01*
X-3107125Y+3344360D01*
X-3186500Y+3344360D01*
X-3059500Y+3298640D02*
X-3059500Y+3359600D01*
X-3027750Y+3390080D01*
X-2996000Y+3390080D01*
X-2964250Y+3359600D01*
X-2964250Y+3298640D01*
X-3059500Y+3329120D02*
X-2964250Y+3329120D01*
X-2932500Y+3298640D02*
X-2932500Y+3390080D01*
X-2853125Y+3390080D01*
X-2837250Y+3374840D01*
X-2837250Y+3359600D01*
X-2853125Y+3344360D01*
X-2932500Y+3344360D01*
X-2853125Y+3344360D02*
X-2837250Y+3329120D01*
X-2837250Y+3298640D01*
X-2710250Y+3298640D02*
X-2805500Y+3298640D01*
X-2805500Y+3390080D01*
X-2710250Y+3390080D01*
X-2805500Y+3344360D02*
X-2742000Y+3344360D01*
X-2000000Y+3877000D02*
X-2000000Y+4004000D01*
X-2063500Y+4004000D02*
X-1936500Y+4004000D01*
X-1936500Y+4512000D01*
X-2063500Y+4512000D01*
X-2063500Y+4004000D01*
X-2000000Y+4512000D02*
X-2000000Y+4639000D01*
X-2104140Y+4131000D02*
X-2195580Y+4131000D01*
X-2195580Y+4210375D01*
X-2180340Y+4226250D01*
X-2165100Y+4226250D01*
X-2149860Y+4210375D01*
X-2149860Y+4131000D01*
X-2149860Y+4210375D02*
X-2134620Y+4226250D01*
X-2104140Y+4226250D01*
X-2134620Y+4353250D02*
X-2134620Y+4258000D01*
X-2195580Y+4321500D01*
X-2104140Y+4321500D01*
X-254000Y+3258000D02*
X-254000Y+2242000D01*
X+762000Y+3258000D02*
X+762000Y+2242000D01*
X-254000Y+2242000D02*
X+762000Y+2242000D01*
X-254000Y+3258000D02*
X+762000Y+3258000D01*
X-127000Y+3298640D02*
X-127000Y+3390080D01*
X-47625Y+3390080D01*
X-31750Y+3374840D01*
X-31750Y+3359600D01*
X-47625Y+3344360D01*
X-127000Y+3344360D01*
X-47625Y+3344360D02*
X-31750Y+3329120D01*
X-31750Y+3298640D01*
X+95250Y+3298640D02*
X+0Y+3298640D01*
X+0Y+3390080D01*
X+95250Y+3390080D01*
X+0Y+3344360D02*
X+63500Y+3344360D01*
X+127000Y+3390080D02*
X+127000Y+3298640D01*
X+222250Y+3298640D01*
X+254000Y+3298640D02*
X+254000Y+3359600D01*
X+285750Y+3390080D01*
X+317500Y+3390080D01*
X+349250Y+3359600D01*
X+349250Y+3298640D01*
X+254000Y+3329120D02*
X+349250Y+3329120D01*
X+476250Y+3390080D02*
X+381000Y+3298640D01*
X+381000Y+3390080D02*
X+428625Y+3344360D01*
X+539750Y+3359600D02*
X+571500Y+3390080D01*
X+571500Y+3298640D01*
X+1496000Y+3258000D02*
X+1496000Y+2242000D01*
X+2512000Y+3258000D02*
X+2512000Y+2242000D01*
X+1496000Y+2242000D02*
X+2512000Y+2242000D01*
X+1496000Y+3258000D02*
X+2512000Y+3258000D01*
X+1623000Y+3298640D02*
X+1623000Y+3390080D01*
X+1702375Y+3390080D01*
X+1718250Y+3374840D01*
X+1718250Y+3359600D01*
X+1702375Y+3344360D01*
X+1623000Y+3344360D01*
X+1702375Y+3344360D02*
X+1718250Y+3329120D01*
X+1718250Y+3298640D01*
X+1845250Y+3298640D02*
X+1750000Y+3298640D01*
X+1750000Y+3390080D01*
X+1845250Y+3390080D01*
X+1750000Y+3344360D02*
X+1813500Y+3344360D01*
X+1877000Y+3390080D02*
X+1877000Y+3298640D01*
X+1972250Y+3298640D01*
X+2004000Y+3298640D02*
X+2004000Y+3359600D01*
X+2035750Y+3390080D01*
X+2067500Y+3390080D01*
X+2099250Y+3359600D01*
X+2099250Y+3298640D01*
X+2004000Y+3329120D02*
X+2099250Y+3329120D01*
X+2226250Y+3390080D02*
X+2131000Y+3298640D01*
X+2131000Y+3390080D02*
X+2178625Y+3344360D01*
X+2273875Y+3374840D02*
X+2289750Y+3390080D01*
X+2337375Y+3390080D01*
X+2353250Y+3374840D01*
X+2353250Y+3359600D01*
X+2337375Y+3344360D01*
X+2289750Y+3344360D01*
X+2273875Y+3329120D01*
X+2273875Y+3298640D01*
X+2353250Y+3298640D01*
X+3246000Y+3258000D02*
X+3246000Y+2242000D01*
X+4262000Y+3258000D02*
X+4262000Y+2242000D01*
X+3246000Y+2242000D02*
X+4262000Y+2242000D01*
X+3246000Y+3258000D02*
X+4262000Y+3258000D01*
X+3373000Y+3298640D02*
X+3373000Y+3390080D01*
X+3452375Y+3390080D01*
X+3468250Y+3374840D01*
X+3468250Y+3359600D01*
X+3452375Y+3344360D01*
X+3373000Y+3344360D01*
X+3452375Y+3344360D02*
X+3468250Y+3329120D01*
X+3468250Y+3298640D01*
X+3595250Y+3298640D02*
X+3500000Y+3298640D01*
X+3500000Y+3390080D01*
X+3595250Y+3390080D01*
X+3500000Y+3344360D02*
X+3563500Y+3344360D01*
X+3627000Y+3390080D02*
X+3627000Y+3298640D01*
X+3722250Y+3298640D01*
X+3754000Y+3298640D02*
X+3754000Y+3359600D01*
X+3785750Y+3390080D01*
X+3817500Y+3390080D01*
X+3849250Y+3359600D01*
X+3849250Y+3298640D01*
X+3754000Y+3329120D02*
X+3849250Y+3329120D01*
X+3976250Y+3390080D02*
X+3881000Y+3298640D01*
X+3881000Y+3390080D02*
X+3928625Y+3344360D01*
X+4023875Y+3374840D02*
X+4039750Y+3390080D01*
X+4087375Y+3390080D01*
X+4103250Y+3374840D01*
X+4103250Y+3359600D01*
X+4087375Y+3344360D01*
X+4103250Y+3329120D01*
X+4103250Y+3313880D01*
X+4087375Y+3298640D01*
X+4039750Y+3298640D01*
X+4023875Y+3313880D01*
X+4055625Y+3344360D02*
X+4087375Y+3344360D01*
X+5496000Y+3258000D02*
X+5496000Y+2242000D01*
X+6512000Y+3258000D02*
X+6512000Y+2242000D01*
X+5496000Y+2242000D02*
X+6512000Y+2242000D01*
X+5496000Y+3258000D02*
X+6512000Y+3258000D01*
X+5623000Y+3298640D02*
X+5623000Y+3390080D01*
X+5702375Y+3390080D01*
X+5718250Y+3374840D01*
X+5718250Y+3359600D01*
X+5702375Y+3344360D01*
X+5623000Y+3344360D01*
X+5702375Y+3344360D02*
X+5718250Y+3329120D01*
X+5718250Y+3298640D01*
X+5845250Y+3298640D02*
X+5750000Y+3298640D01*
X+5750000Y+3390080D01*
X+5845250Y+3390080D01*
X+5750000Y+3344360D02*
X+5813500Y+3344360D01*
X+5877000Y+3390080D02*
X+5877000Y+3298640D01*
X+5972250Y+3298640D01*
X+6004000Y+3298640D02*
X+6004000Y+3359600D01*
X+6035750Y+3390080D01*
X+6067500Y+3390080D01*
X+6099250Y+3359600D01*
X+6099250Y+3298640D01*
X+6004000Y+3329120D02*
X+6099250Y+3329120D01*
X+6226250Y+3390080D02*
X+6131000Y+3298640D01*
X+6131000Y+3390080D02*
X+6178625Y+3344360D01*
X+6353250Y+3329120D02*
X+6258000Y+3329120D01*
X+6321500Y+3390080D01*
X+6321500Y+3298640D01*
X+746000Y+4960060D02*
X+746000Y+6534860D01*
X+1254000Y+6534860D01*
X+1254000Y+4960060D01*
X+746000Y+4960060D01*
X+593600Y+4960060D02*
X+593600Y+6534860D01*
X+746000Y+5239460D02*
X+593600Y+5391860D01*
X+746000Y+5518860D02*
X+593600Y+5671260D01*
X+746000Y+5798260D02*
X+593600Y+5950660D01*
X+746000Y+6077660D02*
X+593600Y+6230060D01*
X+746000Y+6357060D02*
X+593600Y+6509460D01*
X+746000Y+6357060D02*
X+593600Y+6509460D01*
X+746000Y+6534860D02*
X+593600Y+6534860D01*
X+746000Y+4960060D02*
X+593600Y+5112460D01*
X+746000Y+4960060D02*
X+593600Y+4960060D01*
X+492000Y+5620460D02*
X+461520Y+5652210D01*
X+461520Y+5683960D01*
X+492000Y+5715710D01*
X+522480Y+5715710D01*
X+552960Y+5683960D01*
X+552960Y+5652210D01*
X+522480Y+5620460D01*
X+492000Y+5620460D01*
X+522480Y+5683960D02*
X+552960Y+5715710D01*
X+492000Y+5779210D02*
X+461520Y+5810960D01*
X+552960Y+5810960D01*
X+1996000Y+4913960D02*
X+1996000Y+6488760D01*
X+2504000Y+6488760D01*
X+2504000Y+4913960D01*
X+1996000Y+4913960D01*
X+1843600Y+4913960D02*
X+1843600Y+6488760D01*
X+1996000Y+5193360D02*
X+1843600Y+5345760D01*
X+1996000Y+5472760D02*
X+1843600Y+5625160D01*
X+1996000Y+5752160D02*
X+1843600Y+5904560D01*
X+1996000Y+6031560D02*
X+1843600Y+6183960D01*
X+1996000Y+6310960D02*
X+1843600Y+6463360D01*
X+1996000Y+6310960D02*
X+1843600Y+6463360D01*
X+1996000Y+6488760D02*
X+1843600Y+6488760D01*
X+1996000Y+4913960D02*
X+1843600Y+5066360D01*
X+1996000Y+4913960D02*
X+1843600Y+4913960D01*
X+1742000Y+5574360D02*
X+1711520Y+5606110D01*
X+1711520Y+5637860D01*
X+1742000Y+5669610D01*
X+1772480Y+5669610D01*
X+1802960Y+5637860D01*
X+1802960Y+5606110D01*
X+1772480Y+5574360D01*
X+1742000Y+5574360D01*
X+1772480Y+5637860D02*
X+1802960Y+5669610D01*
X+1726760Y+5717235D02*
X+1711520Y+5733110D01*
X+1711520Y+5780735D01*
X+1726760Y+5796610D01*
X+1742000Y+5796610D01*
X+1757240Y+5780735D01*
X+1757240Y+5733110D01*
X+1772480Y+5717235D01*
X+1802960Y+5717235D01*
X+1802960Y+5796610D01*
X+3496000Y+4960060D02*
X+3496000Y+6534860D01*
X+4004000Y+6534860D01*
X+4004000Y+4960060D01*
X+3496000Y+4960060D01*
X+3343600Y+4960060D02*
X+3343600Y+6534860D01*
X+3496000Y+5239460D02*
X+3343600Y+5391860D01*
X+3496000Y+5518860D02*
X+3343600Y+5671260D01*
X+3496000Y+5798260D02*
X+3343600Y+5950660D01*
X+3496000Y+6077660D02*
X+3343600Y+6230060D01*
X+3496000Y+6357060D02*
X+3343600Y+6509460D01*
X+3496000Y+6357060D02*
X+3343600Y+6509460D01*
X+3496000Y+6534860D02*
X+3343600Y+6534860D01*
X+3496000Y+4960060D02*
X+3343600Y+5112460D01*
X+3496000Y+4960060D02*
X+3343600Y+4960060D01*
X+3242000Y+5620460D02*
X+3211520Y+5652210D01*
X+3211520Y+5683960D01*
X+3242000Y+5715710D01*
X+3272480Y+5715710D01*
X+3302960Y+5683960D01*
X+3302960Y+5652210D01*
X+3272480Y+5620460D01*
X+3242000Y+5620460D01*
X+3272480Y+5683960D02*
X+3302960Y+5715710D01*
X+3226760Y+5763335D02*
X+3211520Y+5779210D01*
X+3211520Y+5826835D01*
X+3226760Y+5842710D01*
X+3242000Y+5842710D01*
X+3257240Y+5826835D01*
X+3272480Y+5842710D01*
X+3287720Y+5842710D01*
X+3302960Y+5826835D01*
X+3302960Y+5779210D01*
X+3287720Y+5763335D01*
X+3257240Y+5795085D02*
X+3257240Y+5826835D01*
X+4996000Y+4960060D02*
X+4996000Y+6534860D01*
X+5504000Y+6534860D01*
X+5504000Y+4960060D01*
X+4996000Y+4960060D01*
X+4843600Y+4960060D02*
X+4843600Y+6534860D01*
X+4996000Y+5239460D02*
X+4843600Y+5391860D01*
X+4996000Y+5518860D02*
X+4843600Y+5671260D01*
X+4996000Y+5798260D02*
X+4843600Y+5950660D01*
X+4996000Y+6077660D02*
X+4843600Y+6230060D01*
X+4996000Y+6357060D02*
X+4843600Y+6509460D01*
X+4996000Y+6357060D02*
X+4843600Y+6509460D01*
X+4996000Y+6534860D02*
X+4843600Y+6534860D01*
X+4996000Y+4960060D02*
X+4843600Y+5112460D01*
X+4996000Y+4960060D02*
X+4843600Y+4960060D01*
X+4742000Y+5620460D02*
X+4711520Y+5652210D01*
X+4711520Y+5683960D01*
X+4742000Y+5715710D01*
X+4772480Y+5715710D01*
X+4802960Y+5683960D01*
X+4802960Y+5652210D01*
X+4772480Y+5620460D01*
X+4742000Y+5620460D01*
X+4772480Y+5683960D02*
X+4802960Y+5715710D01*
X+4772480Y+5842710D02*
X+4772480Y+5747460D01*
X+4711520Y+5810960D01*
X+4802960Y+5810960D01*
X+3250000Y+4623000D02*
X+3250000Y+4496000D01*
X+3186500Y+3988000D02*
X+3313500Y+3988000D01*
X+3313500Y+4496000D01*
X+3186500Y+4496000D01*
X+3186500Y+3988000D01*
X+3250000Y+3988000D02*
X+3250000Y+3861000D01*
X+3445580Y+4115000D02*
X+3354140Y+4115000D01*
X+3354140Y+4194375D01*
X+3369380Y+4210250D01*
X+3384620Y+4210250D01*
X+3399860Y+4194375D01*
X+3399860Y+4115000D01*
X+3399860Y+4194375D02*
X+3415100Y+4210250D01*
X+3445580Y+4210250D01*
X+3354140Y+4337250D02*
X+3354140Y+4257875D01*
X+3384620Y+4257875D01*
X+3384620Y+4321375D01*
X+3399860Y+4337250D01*
X+3430340Y+4337250D01*
X+3445580Y+4321375D01*
X+3445580Y+4273750D01*
X+3430340Y+4257875D01*
X+431800Y+3686500D02*
X+431800Y+3813500D01*
X+431800Y+3686500D02*
X+304800Y+3750000D01*
X+431800Y+3813500D02*
X+304800Y+3750000D01*
X+304800Y+3686500D02*
X+304800Y+3813500D01*
X+635000Y+3750000D02*
X+431800Y+3750000D01*
X+304800Y+3750000D02*
X+127000Y+3750000D01*
X+254000Y+3554420D02*
X+254000Y+3645860D01*
X+317500Y+3645860D01*
X+349250Y+3615380D01*
X+349250Y+3584900D01*
X+317500Y+3554420D01*
X+254000Y+3554420D01*
X+412750Y+3615380D02*
X+444500Y+3645860D01*
X+444500Y+3554420D01*
X+2181800Y+3686500D02*
X+2181800Y+3813500D01*
X+2181800Y+3686500D02*
X+2054800Y+3750000D01*
X+2181800Y+3813500D02*
X+2054800Y+3750000D01*
X+2054800Y+3686500D02*
X+2054800Y+3813500D01*
X+2385000Y+3750000D02*
X+2181800Y+3750000D01*
X+2054800Y+3750000D02*
X+1877000Y+3750000D01*
X+2004000Y+3554420D02*
X+2004000Y+3645860D01*
X+2067500Y+3645860D01*
X+2099250Y+3615380D01*
X+2099250Y+3584900D01*
X+2067500Y+3554420D01*
X+2004000Y+3554420D01*
X+2146875Y+3630620D02*
X+2162750Y+3645860D01*
X+2210375Y+3645860D01*
X+2226250Y+3630620D01*
X+2226250Y+3615380D01*
X+2210375Y+3600140D01*
X+2162750Y+3600140D01*
X+2146875Y+3584900D01*
X+2146875Y+3554420D01*
X+2226250Y+3554420D01*
X+3431800Y+3436500D02*
X+3431800Y+3563500D01*
X+3431800Y+3436500D02*
X+3304800Y+3500000D01*
X+3431800Y+3563500D02*
X+3304800Y+3500000D01*
X+3304800Y+3436500D02*
X+3304800Y+3563500D01*
X+3635000Y+3500000D02*
X+3431800Y+3500000D01*
X+3304800Y+3500000D02*
X+3127000Y+3500000D01*
X+3254000Y+3304420D02*
X+3254000Y+3395860D01*
X+3317500Y+3395860D01*
X+3349250Y+3365380D01*
X+3349250Y+3334900D01*
X+3317500Y+3304420D01*
X+3254000Y+3304420D01*
X+3396875Y+3380620D02*
X+3412750Y+3395860D01*
X+3460375Y+3395860D01*
X+3476250Y+3380620D01*
X+3476250Y+3365380D01*
X+3460375Y+3350140D01*
X+3476250Y+3334900D01*
X+3476250Y+3319660D01*
X+3460375Y+3304420D01*
X+3412750Y+3304420D01*
X+3396875Y+3319660D01*
X+3428625Y+3350140D02*
X+3460375Y+3350140D01*
X+6181800Y+3436500D02*
X+6181800Y+3563500D01*
X+6181800Y+3436500D02*
X+6054800Y+3500000D01*
X+6181800Y+3563500D02*
X+6054800Y+3500000D01*
X+6054800Y+3436500D02*
X+6054800Y+3563500D01*
X+6385000Y+3500000D02*
X+6181800Y+3500000D01*
X+6054800Y+3500000D02*
X+5877000Y+3500000D01*
X+6004000Y+3304420D02*
X+6004000Y+3395860D01*
X+6067500Y+3395860D01*
X+6099250Y+3365380D01*
X+6099250Y+3334900D01*
X+6067500Y+3304420D01*
X+6004000Y+3304420D01*
X+6226250Y+3334900D02*
X+6131000Y+3334900D01*
X+6194500Y+3395860D01*
X+6194500Y+3304420D01*
X+250000Y+6123000D02*
X+250000Y+5996000D01*
X+186500Y+5488000D02*
X+313500Y+5488000D01*
X+313500Y+5996000D01*
X+186500Y+5996000D01*
X+186500Y+5488000D01*
X+250000Y+5488000D02*
X+250000Y+5361000D01*
X+445580Y+5615000D02*
X+354140Y+5615000D01*
X+354140Y+5694375D01*
X+369380Y+5710250D01*
X+384620Y+5710250D01*
X+399860Y+5694375D01*
X+399860Y+5615000D01*
X+399860Y+5694375D02*
X+415100Y+5710250D01*
X+445580Y+5710250D01*
X+369380Y+5837250D02*
X+354140Y+5821375D01*
X+354140Y+5773750D01*
X+369380Y+5757875D01*
X+430340Y+5757875D01*
X+445580Y+5773750D01*
X+445580Y+5821375D01*
X+430340Y+5837250D01*
X+415100Y+5837250D01*
X+399860Y+5821375D01*
X+399860Y+5757875D01*
X+1750000Y+6123000D02*
X+1750000Y+5996000D01*
X+1686500Y+5488000D02*
X+1813500Y+5488000D01*
X+1813500Y+5996000D01*
X+1686500Y+5996000D01*
X+1686500Y+5488000D01*
X+1750000Y+5488000D02*
X+1750000Y+5361000D01*
X+1945580Y+5615000D02*
X+1854140Y+5615000D01*
X+1854140Y+5694375D01*
X+1869380Y+5710250D01*
X+1884620Y+5710250D01*
X+1899860Y+5694375D01*
X+1899860Y+5615000D01*
X+1899860Y+5694375D02*
X+1915100Y+5710250D01*
X+1945580Y+5710250D01*
X+1854140Y+5757875D02*
X+1854140Y+5837250D01*
X+1869380Y+5837250D01*
X+1945580Y+5757875D01*
X+5750000Y+6373000D02*
X+5750000Y+6246000D01*
X+5686500Y+5738000D02*
X+5813500Y+5738000D01*
X+5813500Y+6246000D01*
X+5686500Y+6246000D01*
X+5686500Y+5738000D01*
X+5750000Y+5738000D02*
X+5750000Y+5611000D01*
X+5945580Y+5865000D02*
X+5854140Y+5865000D01*
X+5854140Y+5944375D01*
X+5869380Y+5960250D01*
X+5884620Y+5960250D01*
X+5899860Y+5944375D01*
X+5899860Y+5865000D01*
X+5899860Y+5944375D02*
X+5915100Y+5960250D01*
X+5945580Y+5960250D01*
X+5899860Y+6023750D02*
X+5884620Y+6007875D01*
X+5869380Y+6007875D01*
X+5854140Y+6023750D01*
X+5854140Y+6071375D01*
X+5869380Y+6087250D01*
X+5884620Y+6087250D01*
X+5899860Y+6071375D01*
X+5899860Y+6023750D01*
X+5915100Y+6007875D01*
X+5930340Y+6007875D01*
X+5945580Y+6023750D01*
X+5945580Y+6071375D01*
X+5930340Y+6087250D01*
X+5915100Y+6087250D01*
X+5899860Y+6071375D01*
D18*
X-13500000Y+11500000D02*
X+7250000Y+11500000D01*
X+7250000Y+500000D01*
X-11000000Y+500000D01*
X-13500000Y+11500000D02*
X-13500000Y+3250000D01*
X-11000000Y+500000D01*
D70*
X-13500000Y+11500000D02*
X+7250000Y+11500000D01*
X-13500000Y+11500000D02*
X-13373000Y+11373000D01*
X-13500000Y+11500000D02*
X-13373000Y+11627000D01*
X+7250000Y+11500000D02*
X+7123000Y+11627000D01*
X+7250000Y+11500000D02*
X+7123000Y+11373000D01*
X-3093250Y+11500000D02*
X-3093359Y+11502634D01*
X-3094249Y+11507903D01*
X-3096111Y+11513172D01*
X-3099154Y+11518441D01*
X-3103809Y+11523643D01*
X-3109078Y+11527469D01*
X-3114347Y+11529909D01*
X-3119616Y+11531290D01*
X-3124885Y+11531750D01*
X-3125000Y+11531750D01*
X-3156750Y+11500000D02*
X-3156641Y+11502634D01*
X-3155751Y+11507903D01*
X-3153889Y+11513172D01*
X-3150846Y+11518441D01*
X-3146191Y+11523643D01*
X-3140922Y+11527469D01*
X-3135653Y+11529909D01*
X-3130384Y+11531290D01*
X-3125115Y+11531750D01*
X-3125000Y+11531750D01*
X-3156750Y+11500000D02*
X-3156641Y+11497366D01*
X-3155751Y+11492097D01*
X-3153889Y+11486828D01*
X-3150846Y+11481559D01*
X-3146191Y+11476357D01*
X-3140922Y+11472531D01*
X-3135653Y+11470091D01*
X-3130384Y+11468710D01*
X-3125115Y+11468250D01*
X-3125000Y+11468250D01*
X-3093250Y+11500000D02*
X-3093359Y+11497366D01*
X-3094249Y+11492097D01*
X-3096111Y+11486828D01*
X-3099154Y+11481559D01*
X-3103809Y+11476357D01*
X-3109078Y+11472531D01*
X-3114347Y+11470091D01*
X-3119616Y+11468710D01*
X-3124885Y+11468250D01*
X-3125000Y+11468250D01*
X-3553625Y+11616840D02*
X-3537750Y+11632080D01*
X-3490125Y+11632080D01*
X-3474250Y+11616840D01*
X-3474250Y+11601600D01*
X-3490125Y+11586360D01*
X-3537750Y+11586360D01*
X-3553625Y+11571120D01*
X-3553625Y+11540640D01*
X-3474250Y+11540640D01*
X-3442500Y+11555880D02*
X-3442500Y+11616840D01*
X-3426625Y+11632080D01*
X-3363125Y+11632080D01*
X-3347250Y+11616840D01*
X-3347250Y+11555880D01*
X-3363125Y+11540640D01*
X-3426625Y+11540640D01*
X-3442500Y+11555880D01*
X-3442500Y+11540640D02*
X-3347250Y+11632080D01*
X-3299625Y+11632080D02*
X-3220250Y+11632080D01*
X-3220250Y+11616840D01*
X-3299625Y+11540640D01*
X-3140875Y+11555880D02*
X-3125000Y+11555880D01*
X-3125000Y+11540640D01*
X-3140875Y+11540640D01*
X-3140875Y+11555880D01*
X-2966250Y+11632080D02*
X-3045625Y+11632080D01*
X-3045625Y+11601600D01*
X-2982125Y+11601600D01*
X-2966250Y+11586360D01*
X-2966250Y+11555880D01*
X-2982125Y+11540640D01*
X-3029750Y+11540640D01*
X-3045625Y+11555880D01*
X-2934500Y+11540640D02*
X-2934500Y+11601600D01*
X-2934500Y+11586360D02*
X-2918625Y+11601600D01*
X-2886875Y+11571120D01*
X-2855125Y+11601600D01*
X-2839250Y+11586360D01*
X-2839250Y+11540640D01*
X-2807500Y+11540640D02*
X-2807500Y+11601600D01*
X-2807500Y+11586360D02*
X-2791625Y+11601600D01*
X-2759875Y+11571120D01*
X-2728125Y+11601600D01*
X-2712250Y+11586360D01*
X-2712250Y+11540640D01*
X+7250000Y+11500000D02*
X+7250000Y+500000D01*
X+7250000Y+11500000D02*
X+7123000Y+11373000D01*
X+7250000Y+11500000D02*
X+7377000Y+11373000D01*
X+7250000Y+500000D02*
X+7377000Y+627000D01*
X+7250000Y+500000D02*
X+7123000Y+627000D01*
X+7281750Y+6000000D02*
X+7281641Y+6002634D01*
X+7280751Y+6007903D01*
X+7278889Y+6013172D01*
X+7275846Y+6018441D01*
X+7271191Y+6023643D01*
X+7265922Y+6027469D01*
X+7260653Y+6029909D01*
X+7255384Y+6031290D01*
X+7250115Y+6031750D01*
X+7250000Y+6031750D01*
X+7218250Y+6000000D02*
X+7218359Y+6002634D01*
X+7219249Y+6007903D01*
X+7221111Y+6013172D01*
X+7224154Y+6018441D01*
X+7228809Y+6023643D01*
X+7234078Y+6027469D01*
X+7239347Y+6029909D01*
X+7244616Y+6031290D01*
X+7249885Y+6031750D01*
X+7250000Y+6031750D01*
X+7218250Y+6000000D02*
X+7218359Y+5997366D01*
X+7219249Y+5992097D01*
X+7221111Y+5986828D01*
X+7224154Y+5981559D01*
X+7228809Y+5976357D01*
X+7234078Y+5972531D01*
X+7239347Y+5970091D01*
X+7244616Y+5968710D01*
X+7249885Y+5968250D01*
X+7250000Y+5968250D01*
X+7281750Y+6000000D02*
X+7281641Y+5997366D01*
X+7280751Y+5992097D01*
X+7278889Y+5986828D01*
X+7275846Y+5981559D01*
X+7271191Y+5976357D01*
X+7265922Y+5972531D01*
X+7260653Y+5970091D01*
X+7255384Y+5968710D01*
X+7250115Y+5968250D01*
X+7250000Y+5968250D01*
X+7351600Y+6285750D02*
X+7382080Y+6254000D01*
X+7290640Y+6254000D01*
X+7351600Y+6158750D02*
X+7382080Y+6127000D01*
X+7290640Y+6127000D01*
X+7305880Y+6063500D02*
X+7366840Y+6063500D01*
X+7382080Y+6047625D01*
X+7382080Y+5984125D01*
X+7366840Y+5968250D01*
X+7305880Y+5968250D01*
X+7290640Y+5984125D01*
X+7290640Y+6047625D01*
X+7305880Y+6063500D01*
X+7290640Y+6063500D02*
X+7382080Y+5968250D01*
X+7290640Y+5936500D02*
X+7351600Y+5936500D01*
X+7336360Y+5936500D02*
X+7351600Y+5920625D01*
X+7321120Y+5888875D01*
X+7351600Y+5857125D01*
X+7336360Y+5841250D01*
X+7290640Y+5841250D01*
X+7290640Y+5809500D02*
X+7351600Y+5809500D01*
X+7336360Y+5809500D02*
X+7351600Y+5793625D01*
X+7321120Y+5761875D01*
X+7351600Y+5730125D01*
X+7336360Y+5714250D01*
X+7290640Y+5714250D01*
D19*
X-5504000Y+6258000D02*
X-5504000Y+5242000D01*
X-3472000Y+6258000D02*
X-3472000Y+5242000D01*
X-5504000Y+5242000D01*
X-5504000Y+6258000D02*
X-3472000Y+6258000D01*
X-5027750Y+6359600D02*
X-4996000Y+6390080D01*
X-4996000Y+6298640D01*
X-4916625Y+6374840D02*
X-4900750Y+6390080D01*
X-4853125Y+6390080D01*
X-4837250Y+6374840D01*
X-4837250Y+6359600D01*
X-4853125Y+6344360D01*
X-4900750Y+6344360D01*
X-4916625Y+6329120D01*
X-4916625Y+6298640D01*
X-4837250Y+6298640D01*
X-4805500Y+6390080D02*
X-4805500Y+6344360D01*
X-4757875Y+6298640D01*
X-4710250Y+6344360D01*
X-4710250Y+6390080D01*
X-4662625Y+6344360D02*
X-4583250Y+6344360D01*
X-4551500Y+6313880D02*
X-4535625Y+6298640D01*
X-4472125Y+6298640D01*
X-4456250Y+6313880D01*
X-4456250Y+6329120D01*
X-4472125Y+6344360D01*
X-4535625Y+6344360D01*
X-4551500Y+6359600D01*
X-4551500Y+6374840D01*
X-4535625Y+6390080D01*
X-4472125Y+6390080D01*
X-4456250Y+6374840D01*
X-4329250Y+6313880D02*
X-4345125Y+6298640D01*
X-4392750Y+6298640D01*
X-4424500Y+6329120D01*
X-4424500Y+6359600D01*
X-4392750Y+6390080D01*
X-4345125Y+6390080D01*
X-4329250Y+6374840D01*
X-4297500Y+6298640D02*
X-4297500Y+6390080D01*
X-4218125Y+6390080D01*
X-4202250Y+6374840D01*
X-4202250Y+6359600D01*
X-4218125Y+6344360D01*
X-4297500Y+6344360D01*
X-4218125Y+6344360D02*
X-4202250Y+6329120D01*
X-4202250Y+6298640D01*
X-4154625Y+6344360D02*
X-4075250Y+6344360D01*
X-4011750Y+6359600D02*
X-3980000Y+6390080D01*
X-3980000Y+6298640D01*
M02*
